<mxfile host="app.diagrams.net" modified="2024-04-25T07:48:44.467Z" agent="Mozilla/5.0 (Windows NT 10.0; Win64; x64) AppleWebKit/537.36 (KHTML, like Gecko) Chrome/124.0.0.0 Safari/537.36 Edg/124.0.0.0" etag="28Jug-0t2H8Xk3CeUvew" version="24.3.0" type="device">
  <diagram id="C5RBs43oDa-KdzZeNtuy" name="Page-1">
    <mxGraphModel dx="1205" dy="690" grid="1" gridSize="10" guides="1" tooltips="1" connect="1" arrows="1" fold="1" page="1" pageScale="1" pageWidth="1169" pageHeight="827" math="0" shadow="0">
      <root>
        <mxCell id="WIyWlLk6GJQsqaUBKTNV-0" />
        <mxCell id="WIyWlLk6GJQsqaUBKTNV-1" parent="WIyWlLk6GJQsqaUBKTNV-0" />
        <mxCell id="5RizgXnkCKZxEkCJOkkX-17" value="DMXTCP" style="swimlane;fontStyle=0;childLayout=stackLayout;horizontal=1;startSize=26;fillColor=none;horizontalStack=0;resizeParent=1;resizeParentMax=0;resizeLast=0;collapsible=1;marginBottom=0;whiteSpace=wrap;html=1;" vertex="1" parent="WIyWlLk6GJQsqaUBKTNV-1">
          <mxGeometry x="70" y="60" width="400" height="216" as="geometry" />
        </mxCell>
        <mxCell id="5RizgXnkCKZxEkCJOkkX-29" value="-trame : unsigned char [0..*]" style="text;strokeColor=none;fillColor=none;align=left;verticalAlign=top;spacingLeft=4;spacingRight=4;overflow=hidden;rotatable=0;points=[[0,0.5],[1,0.5]];portConstraint=eastwest;whiteSpace=wrap;html=1;" vertex="1" parent="5RizgXnkCKZxEkCJOkkX-17">
          <mxGeometry y="26" width="400" height="26" as="geometry" />
        </mxCell>
        <mxCell id="5RizgXnkCKZxEkCJOkkX-30" value="" style="line;html=1;strokeWidth=1;align=left;verticalAlign=middle;spacingTop=-1;spacingLeft=3;spacingRight=3;rotatable=0;labelPosition=right;points=[];portConstraint=eastwest;" vertex="1" parent="5RizgXnkCKZxEkCJOkkX-17">
          <mxGeometry y="52" width="400" height="8" as="geometry" />
        </mxCell>
        <mxCell id="5RizgXnkCKZxEkCJOkkX-18" value="+DMXTCP()" style="text;strokeColor=none;fillColor=none;align=left;verticalAlign=top;spacingLeft=4;spacingRight=4;overflow=hidden;rotatable=0;points=[[0,0.5],[1,0.5]];portConstraint=eastwest;whiteSpace=wrap;html=1;" vertex="1" parent="5RizgXnkCKZxEkCJOkkX-17">
          <mxGeometry y="60" width="400" height="26" as="geometry" />
        </mxCell>
        <mxCell id="5RizgXnkCKZxEkCJOkkX-19" value="+ModifierCanal(canal: unsigned short, valeur : unsigned char ) : void)" style="text;strokeColor=none;fillColor=none;align=left;verticalAlign=top;spacingLeft=4;spacingRight=4;overflow=hidden;rotatable=0;points=[[0,0.5],[1,0.5]];portConstraint=eastwest;whiteSpace=wrap;html=1;" vertex="1" parent="5RizgXnkCKZxEkCJOkkX-17">
          <mxGeometry y="86" width="400" height="26" as="geometry" />
        </mxCell>
        <mxCell id="5RizgXnkCKZxEkCJOkkX-20" value="+Envoyer(IP : char [0..*], port : unsigned short ) : void" style="text;strokeColor=none;fillColor=none;align=left;verticalAlign=top;spacingLeft=4;spacingRight=4;overflow=hidden;rotatable=0;points=[[0,0.5],[1,0.5]];portConstraint=eastwest;whiteSpace=wrap;html=1;" vertex="1" parent="5RizgXnkCKZxEkCJOkkX-17">
          <mxGeometry y="112" width="400" height="26" as="geometry" />
        </mxCell>
        <mxCell id="5RizgXnkCKZxEkCJOkkX-21" value="+FullOn() : void" style="text;strokeColor=none;fillColor=none;align=left;verticalAlign=top;spacingLeft=4;spacingRight=4;overflow=hidden;rotatable=0;points=[[0,0.5],[1,0.5]];portConstraint=eastwest;whiteSpace=wrap;html=1;" vertex="1" parent="5RizgXnkCKZxEkCJOkkX-17">
          <mxGeometry y="138" width="400" height="26" as="geometry" />
        </mxCell>
        <mxCell id="5RizgXnkCKZxEkCJOkkX-22" value="+FullOff() : void" style="text;strokeColor=none;fillColor=none;align=left;verticalAlign=top;spacingLeft=4;spacingRight=4;overflow=hidden;rotatable=0;points=[[0,0.5],[1,0.5]];portConstraint=eastwest;whiteSpace=wrap;html=1;" vertex="1" parent="5RizgXnkCKZxEkCJOkkX-17">
          <mxGeometry y="164" width="400" height="26" as="geometry" />
        </mxCell>
        <mxCell id="5RizgXnkCKZxEkCJOkkX-24" value="+Demonstration() : void" style="text;strokeColor=none;fillColor=none;align=left;verticalAlign=top;spacingLeft=4;spacingRight=4;overflow=hidden;rotatable=0;points=[[0,0.5],[1,0.5]];portConstraint=eastwest;whiteSpace=wrap;html=1;" vertex="1" parent="5RizgXnkCKZxEkCJOkkX-17">
          <mxGeometry y="190" width="400" height="26" as="geometry" />
        </mxCell>
        <mxCell id="5RizgXnkCKZxEkCJOkkX-25" value="IRClientTCP" style="swimlane;fontStyle=0;childLayout=stackLayout;horizontal=1;startSize=26;fillColor=none;horizontalStack=0;resizeParent=1;resizeParentMax=0;resizeLast=0;collapsible=1;marginBottom=0;whiteSpace=wrap;html=1;" vertex="1" parent="WIyWlLk6GJQsqaUBKTNV-1">
          <mxGeometry x="70" y="430" width="520" height="242" as="geometry" />
        </mxCell>
        <mxCell id="5RizgXnkCKZxEkCJOkkX-26" value="-nbClientTCP : int" style="text;strokeColor=none;fillColor=none;align=left;verticalAlign=top;spacingLeft=4;spacingRight=4;overflow=hidden;rotatable=0;points=[[0,0.5],[1,0.5]];portConstraint=eastwest;whiteSpace=wrap;html=1;" vertex="1" parent="5RizgXnkCKZxEkCJOkkX-25">
          <mxGeometry y="26" width="520" height="26" as="geometry" />
        </mxCell>
        <mxCell id="5RizgXnkCKZxEkCJOkkX-27" value="-m_maSocket : int" style="text;strokeColor=none;fillColor=none;align=left;verticalAlign=top;spacingLeft=4;spacingRight=4;overflow=hidden;rotatable=0;points=[[0,0.5],[1,0.5]];portConstraint=eastwest;whiteSpace=wrap;html=1;" vertex="1" parent="5RizgXnkCKZxEkCJOkkX-25">
          <mxGeometry y="52" width="520" height="26" as="geometry" />
        </mxCell>
        <mxCell id="5RizgXnkCKZxEkCJOkkX-28" value="-m_portServeur : unsigned short" style="text;strokeColor=none;fillColor=none;align=left;verticalAlign=top;spacingLeft=4;spacingRight=4;overflow=hidden;rotatable=0;points=[[0,0.5],[1,0.5]];portConstraint=eastwest;whiteSpace=wrap;html=1;" vertex="1" parent="5RizgXnkCKZxEkCJOkkX-25">
          <mxGeometry y="78" width="520" height="26" as="geometry" />
        </mxCell>
        <mxCell id="5RizgXnkCKZxEkCJOkkX-36" value="" style="line;html=1;strokeWidth=1;align=left;verticalAlign=middle;spacingTop=-1;spacingLeft=3;spacingRight=3;rotatable=0;labelPosition=right;points=[];portConstraint=eastwest;" vertex="1" parent="5RizgXnkCKZxEkCJOkkX-25">
          <mxGeometry y="104" width="520" height="8" as="geometry" />
        </mxCell>
        <mxCell id="5RizgXnkCKZxEkCJOkkX-31" value="+IRClientTCP()" style="text;strokeColor=none;fillColor=none;align=left;verticalAlign=top;spacingLeft=4;spacingRight=4;overflow=hidden;rotatable=0;points=[[0,0.5],[1,0.5]];portConstraint=eastwest;whiteSpace=wrap;html=1;" vertex="1" parent="5RizgXnkCKZxEkCJOkkX-25">
          <mxGeometry y="112" width="520" height="26" as="geometry" />
        </mxCell>
        <mxCell id="5RizgXnkCKZxEkCJOkkX-32" value="+SeConnecterAUnServeur( adresseIPServeur : string, portServeur : unsigned short ) : bool" style="text;strokeColor=none;fillColor=none;align=left;verticalAlign=top;spacingLeft=4;spacingRight=4;overflow=hidden;rotatable=0;points=[[0,0.5],[1,0.5]];portConstraint=eastwest;whiteSpace=wrap;html=1;" vertex="1" parent="5RizgXnkCKZxEkCJOkkX-25">
          <mxGeometry y="138" width="520" height="26" as="geometry" />
        </mxCell>
        <mxCell id="5RizgXnkCKZxEkCJOkkX-33" value="+SeDeconnecter() : bool" style="text;strokeColor=none;fillColor=none;align=left;verticalAlign=top;spacingLeft=4;spacingRight=4;overflow=hidden;rotatable=0;points=[[0,0.5],[1,0.5]];portConstraint=eastwest;whiteSpace=wrap;html=1;" vertex="1" parent="5RizgXnkCKZxEkCJOkkX-25">
          <mxGeometry y="164" width="520" height="26" as="geometry" />
        </mxCell>
        <mxCell id="5RizgXnkCKZxEkCJOkkX-34" value="+Envoyer( requete : char&quot;const $ *&quot;, longueur : int ) : bool" style="text;strokeColor=none;fillColor=none;align=left;verticalAlign=top;spacingLeft=4;spacingRight=4;overflow=hidden;rotatable=0;points=[[0,0.5],[1,0.5]];portConstraint=eastwest;whiteSpace=wrap;html=1;" vertex="1" parent="5RizgXnkCKZxEkCJOkkX-25">
          <mxGeometry y="190" width="520" height="26" as="geometry" />
        </mxCell>
        <mxCell id="5RizgXnkCKZxEkCJOkkX-35" value="+Recevoir ( reponse : char&quot;$ *&quot;, tailleMax : int ) : int" style="text;strokeColor=none;fillColor=none;align=left;verticalAlign=top;spacingLeft=4;spacingRight=4;overflow=hidden;rotatable=0;points=[[0,0.5],[1,0.5]];portConstraint=eastwest;whiteSpace=wrap;html=1;" vertex="1" parent="5RizgXnkCKZxEkCJOkkX-25">
          <mxGeometry y="216" width="520" height="26" as="geometry" />
        </mxCell>
        <mxCell id="5RizgXnkCKZxEkCJOkkX-46" value="string" style="html=1;whiteSpace=wrap;" vertex="1" parent="WIyWlLk6GJQsqaUBKTNV-1">
          <mxGeometry x="380" y="330" width="200" height="30" as="geometry" />
        </mxCell>
        <mxCell id="5RizgXnkCKZxEkCJOkkX-50" value="1" style="endArrow=open;html=1;endSize=12;startArrow=diamondThin;startSize=14;startFill=1;edgeStyle=orthogonalEdgeStyle;align=left;verticalAlign=bottom;rounded=0;exitX=0.195;exitY=0.984;exitDx=0;exitDy=0;exitPerimeter=0;entryX=0.977;entryY=0.857;entryDx=0;entryDy=0;entryPerimeter=0;" edge="1" parent="WIyWlLk6GJQsqaUBKTNV-1" source="5RizgXnkCKZxEkCJOkkX-24" target="5RizgXnkCKZxEkCJOkkX-51">
          <mxGeometry x="-1" y="3" relative="1" as="geometry">
            <mxPoint x="100" y="360" as="sourcePoint" />
            <mxPoint x="260" y="360" as="targetPoint" />
          </mxGeometry>
        </mxCell>
        <mxCell id="5RizgXnkCKZxEkCJOkkX-51" value="-monClient" style="text;html=1;align=center;verticalAlign=middle;whiteSpace=wrap;rounded=0;" vertex="1" parent="WIyWlLk6GJQsqaUBKTNV-1">
          <mxGeometry x="70" y="405" width="80" height="30" as="geometry" />
        </mxCell>
        <mxCell id="5RizgXnkCKZxEkCJOkkX-52" value="-m_adresseIPServeur" style="text;html=1;align=center;verticalAlign=middle;whiteSpace=wrap;rounded=0;" vertex="1" parent="WIyWlLk6GJQsqaUBKTNV-1">
          <mxGeometry x="360" y="370" width="120" height="30" as="geometry" />
        </mxCell>
        <mxCell id="5RizgXnkCKZxEkCJOkkX-53" value="" style="endArrow=open;html=1;endSize=12;startArrow=diamondThin;startSize=14;startFill=1;edgeStyle=orthogonalEdgeStyle;align=left;verticalAlign=bottom;rounded=0;exitX=0.813;exitY=-0.004;exitDx=0;exitDy=0;exitPerimeter=0;entryX=0.541;entryY=1;entryDx=0;entryDy=0;entryPerimeter=0;" edge="1" parent="WIyWlLk6GJQsqaUBKTNV-1">
          <mxGeometry x="-1" y="3" relative="1" as="geometry">
            <mxPoint x="484.86" y="429.03200000000004" as="sourcePoint" />
            <mxPoint x="484.89" y="360" as="targetPoint" />
          </mxGeometry>
        </mxCell>
      </root>
    </mxGraphModel>
  </diagram>
</mxfile>
